<svg width="99" height="16" viewBox="0 0 99 16" fill="none" xmlns="http://www.w3.org/2000/svg">
<g filter="url(#filter0_d_1_174)">
<mask id="path-1-inside-1_1_174" fill="white">
<path fill-rule="evenodd" clip-rule="evenodd" d="M50.9948 15.7635H47.251V3.94089H50.9948V15.7635ZM51.0933 2.75862H47.1524V0H51.0933V2.75862ZM27.3136 6.6601C29.3432 6.6601 29.5599 6.97537 29.5599 9.85222C29.5599 12.7291 29.3432 13.0443 27.3136 13.0443C25.2841 13.0443 25.0673 12.7291 25.0673 9.85222C25.0673 6.97537 25.2841 6.6601 27.3136 6.6601ZM21.1264 9.85222C21.1264 14.7783 22.3678 16 27.3136 16C32.2594 16 33.5008 14.7783 33.5008 9.85222C33.5008 4.92611 32.2594 3.70443 27.3136 3.70443C22.3678 3.70443 21.1264 4.92611 21.1264 9.85222ZM46.456 3.94089H42.7319L40.1506 13.0049H40.0324L37.6875 3.94089H33.8058L37.0767 15.7635H42.8501L46.456 3.94089ZM64.1929 12H60.252C60.252 12.9852 59.858 13.2414 58.3013 13.2414C56.6855 13.2414 56.3112 12.9852 56.2323 10.9163H64.2915V9.08374C64.1929 4.78818 62.9516 3.70443 58.2816 3.70443C53.4737 3.70443 52.2717 4.92611 52.2717 9.85222C52.2717 14.7783 53.4737 16 58.2816 16C62.9318 16 64.1141 15.1921 64.1929 12ZM56.252 8.15764C56.39 6.6601 56.8432 6.46305 58.3013 6.46305C60.0353 6.46305 60.3112 6.64039 60.3506 8.15764H56.252ZM69.216 11.4089C69.216 12.3153 69.3737 12.4138 70.7727 12.4138V15.7635H68.6249C66.083 15.7635 65.4525 15.1133 65.4722 12.532V0H69.216V11.4089ZM72.0462 15.7635H75.7901V3.94089H72.0462V15.7635ZM71.9477 2.75862H75.8886V0H71.9477V2.75862ZM80.8109 11.803V12.0591C80.8109 13.1232 81.0276 13.2414 83.0374 13.2414C84.9488 13.2414 85.1655 13.1429 85.1655 12.335C85.1655 11.7438 84.6138 11.4877 82.3675 11.0739C78.3478 10.2857 77.3429 9.53695 77.3429 7.27094C77.3429 4.41379 78.5054 3.70443 83.136 3.70443C87.668 3.70443 88.8109 4.51232 88.8109 7.70443V8.05911H85.067V7.70443C85.067 6.58128 84.87 6.46305 83.136 6.46305C81.4611 6.46305 81.2838 6.56158 81.2838 7.38916C81.2838 7.94089 81.6187 8.11823 82.9192 8.31527C87.865 9.12315 89.1064 9.99015 89.1064 12.6108C89.1064 15.33 87.9044 16 83.136 16C78.2887 16 77.067 15.2118 77.067 12.0591V11.803H80.8109ZM98.3655 12.4138H96.3754C95.1537 12.4138 95.0157 12.2562 95.0157 10.8177V7.0936H98.1685V3.94089H95.0157V1.41872H91.4689V3.94089H90.0896V7.0936H91.2719V11.7833C91.2719 14.9754 92.2177 15.7635 96.001 15.7635H98.3655V12.4138ZM6.96294 15.7635L4.65752 4.33497V0.394088H7.88905L10.1945 11.8227H10.3521L12.6772 0.394088H19.9482V15.7635H15.8102V4.33497H15.692L13.3669 15.7635H6.96294ZM0 0.392189H1.37798V1.03291H2.75586V0.392284H4.13384V1.03291H4.13395V2.31381H4.13384V3.59502H4.13395V4.87592H4.13384V6.1583H4.13395V7.43921H4.13384V8.71963H4.13395V10.0005H4.13384V11.2821H4.13395V12.563H4.13384V13.8446H4.13395V15.1255H4.13384V15.7663H2.75586V15.1255H1.37798V15.7662H0V15.1255V13.8446V12.563V11.2821V10.0005V8.71963V7.43921V6.1583V4.87592V3.59502V2.31381V1.03291V0.392189ZM1.37798 3.59502V2.31381H2.75586V3.59502H1.37798ZM1.37798 4.87592V6.1583H2.75586V4.87592H1.37798ZM1.37798 8.71963V7.43921H2.75586V8.71963H1.37798ZM1.37798 10.0005V11.2821H2.75586V10.0005H1.37798ZM1.37798 13.8446V12.563H2.75586V13.8446H1.37798Z"/>
</mask>
<path fill-rule="evenodd" clip-rule="evenodd" d="M50.9948 15.7635H47.251V3.94089H50.9948V15.7635ZM51.0933 2.75862H47.1524V0H51.0933V2.75862ZM27.3136 6.6601C29.3432 6.6601 29.5599 6.97537 29.5599 9.85222C29.5599 12.7291 29.3432 13.0443 27.3136 13.0443C25.2841 13.0443 25.0673 12.7291 25.0673 9.85222C25.0673 6.97537 25.2841 6.6601 27.3136 6.6601ZM21.1264 9.85222C21.1264 14.7783 22.3678 16 27.3136 16C32.2594 16 33.5008 14.7783 33.5008 9.85222C33.5008 4.92611 32.2594 3.70443 27.3136 3.70443C22.3678 3.70443 21.1264 4.92611 21.1264 9.85222ZM46.456 3.94089H42.7319L40.1506 13.0049H40.0324L37.6875 3.94089H33.8058L37.0767 15.7635H42.8501L46.456 3.94089ZM64.1929 12H60.252C60.252 12.9852 59.858 13.2414 58.3013 13.2414C56.6855 13.2414 56.3112 12.9852 56.2323 10.9163H64.2915V9.08374C64.1929 4.78818 62.9516 3.70443 58.2816 3.70443C53.4737 3.70443 52.2717 4.92611 52.2717 9.85222C52.2717 14.7783 53.4737 16 58.2816 16C62.9318 16 64.1141 15.1921 64.1929 12ZM56.252 8.15764C56.39 6.6601 56.8432 6.46305 58.3013 6.46305C60.0353 6.46305 60.3112 6.64039 60.3506 8.15764H56.252ZM69.216 11.4089C69.216 12.3153 69.3737 12.4138 70.7727 12.4138V15.7635H68.6249C66.083 15.7635 65.4525 15.1133 65.4722 12.532V0H69.216V11.4089ZM72.0462 15.7635H75.7901V3.94089H72.0462V15.7635ZM71.9477 2.75862H75.8886V0H71.9477V2.75862ZM80.8109 11.803V12.0591C80.8109 13.1232 81.0276 13.2414 83.0374 13.2414C84.9488 13.2414 85.1655 13.1429 85.1655 12.335C85.1655 11.7438 84.6138 11.4877 82.3675 11.0739C78.3478 10.2857 77.3429 9.53695 77.3429 7.27094C77.3429 4.41379 78.5054 3.70443 83.136 3.70443C87.668 3.70443 88.8109 4.51232 88.8109 7.70443V8.05911H85.067V7.70443C85.067 6.58128 84.87 6.46305 83.136 6.46305C81.4611 6.46305 81.2838 6.56158 81.2838 7.38916C81.2838 7.94089 81.6187 8.11823 82.9192 8.31527C87.865 9.12315 89.1064 9.99015 89.1064 12.6108C89.1064 15.33 87.9044 16 83.136 16C78.2887 16 77.067 15.2118 77.067 12.0591V11.803H80.8109ZM98.3655 12.4138H96.3754C95.1537 12.4138 95.0157 12.2562 95.0157 10.8177V7.0936H98.1685V3.94089H95.0157V1.41872H91.4689V3.94089H90.0896V7.0936H91.2719V11.7833C91.2719 14.9754 92.2177 15.7635 96.001 15.7635H98.3655V12.4138ZM6.96294 15.7635L4.65752 4.33497V0.394088H7.88905L10.1945 11.8227H10.3521L12.6772 0.394088H19.9482V15.7635H15.8102V4.33497H15.692L13.3669 15.7635H6.96294ZM0 0.392189H1.37798V1.03291H2.75586V0.392284H4.13384V1.03291H4.13395V2.31381H4.13384V3.59502H4.13395V4.87592H4.13384V6.1583H4.13395V7.43921H4.13384V8.71963H4.13395V10.0005H4.13384V11.2821H4.13395V12.563H4.13384V13.8446H4.13395V15.1255H4.13384V15.7663H2.75586V15.1255H1.37798V15.7662H0V15.1255V13.8446V12.563V11.2821V10.0005V8.71963V7.43921V6.1583V4.87592V3.59502V2.31381V1.03291V0.392189ZM1.37798 3.59502V2.31381H2.75586V3.59502H1.37798ZM1.37798 4.87592V6.1583H2.75586V4.87592H1.37798ZM1.37798 8.71963V7.43921H2.75586V8.71963H1.37798ZM1.37798 10.0005V11.2821H2.75586V10.0005H1.37798ZM1.37798 13.8446V12.563H2.75586V13.8446H1.37798Z" fill="#F33F3F"/>
<path d="M47.251 15.7635H46.251V16.7635H47.251V15.7635ZM50.9948 15.7635V16.7635H51.9948V15.7635H50.9948ZM47.251 3.94089V2.94089H46.251V3.94089H47.251ZM50.9948 3.94089H51.9948V2.94089H50.9948V3.94089ZM47.1524 2.75862H46.1524V3.75862H47.1524V2.75862ZM51.0933 2.75862V3.75862H52.0933V2.75862H51.0933ZM47.1524 0V-1H46.1524V0H47.1524ZM51.0933 0H52.0933V-1H51.0933V0ZM42.7319 3.94089V2.94089H41.9769L41.7701 3.66699L42.7319 3.94089ZM46.456 3.94089L47.4125 4.23262L47.8065 2.94089H46.456V3.94089ZM40.1506 13.0049V14.0049H40.9056L41.1124 13.2788L40.1506 13.0049ZM40.0324 13.0049L39.0642 13.2554L39.2581 14.0049H40.0324V13.0049ZM37.6875 3.94089L38.6557 3.69043L38.4618 2.94089H37.6875V3.94089ZM33.8058 3.94089V2.94089H32.4915L32.842 4.20754L33.8058 3.94089ZM37.0767 15.7635L36.1129 16.0302L36.3158 16.7635H37.0767V15.7635ZM42.8501 15.7635V16.7635H43.5906L43.8066 16.0553L42.8501 15.7635ZM60.252 12V11H59.252V12H60.252ZM64.1929 12L65.1926 12.0247L65.2179 11H64.1929V12ZM56.2323 10.9163V9.91626H55.1935L55.2331 10.9543L56.2323 10.9163ZM64.2915 10.9163V11.9163H65.2915V10.9163H64.2915ZM64.2915 9.08374H65.2915V9.07228L65.2912 9.06081L64.2915 9.08374ZM56.252 8.15764L55.2563 8.06592L55.1557 9.15764H56.252V8.15764ZM60.3506 8.15764V9.15764H61.3769L61.3502 8.13167L60.3506 8.15764ZM70.7727 12.4138H71.7727V11.4138H70.7727V12.4138ZM70.7727 15.7635V16.7635H71.7727V15.7635H70.7727ZM65.4722 12.532L66.4722 12.5397V12.532H65.4722ZM65.4722 0V-1H64.4722V0H65.4722ZM69.216 0H70.216V-1H69.216V0ZM75.7901 15.7635V16.7635H76.7901V15.7635H75.7901ZM72.0462 15.7635H71.0462V16.7635H72.0462V15.7635ZM75.7901 3.94089H76.7901V2.94089H75.7901V3.94089ZM72.0462 3.94089V2.94089H71.0462V3.94089H72.0462ZM75.8886 2.75862V3.75862H76.8886V2.75862H75.8886ZM71.9477 2.75862H70.9477V3.75862H71.9477V2.75862ZM75.8886 0H76.8886V-1H75.8886V0ZM71.9477 0V-1H70.9477V0H71.9477ZM80.8109 11.803H81.8109V10.803H80.8109V11.803ZM82.3675 11.0739L82.1751 12.0553L82.1863 12.0573L82.3675 11.0739ZM88.8109 8.05911V9.05911H89.8109V8.05911H88.8109ZM85.067 8.05911H84.067V9.05911H85.067V8.05911ZM82.9192 8.31527L83.0804 7.32829L83.069 7.32656L82.9192 8.31527ZM77.067 11.803V10.803H76.067V11.803H77.067ZM98.3655 12.4138H99.3655V11.4138H98.3655V12.4138ZM95.0157 7.0936V6.0936H94.0157V7.0936H95.0157ZM98.1685 7.0936V8.0936H99.1685V7.0936H98.1685ZM98.1685 3.94089H99.1685V2.94089H98.1685V3.94089ZM95.0157 3.94089H94.0157V4.94089H95.0157V3.94089ZM95.0157 1.41872H96.0157V0.418719H95.0157V1.41872ZM91.4689 1.41872V0.418719H90.4689V1.41872H91.4689ZM91.4689 3.94089V4.94089H92.4689V3.94089H91.4689ZM90.0896 3.94089V2.94089H89.0896V3.94089H90.0896ZM90.0896 7.0936H89.0896V8.0936H90.0896V7.0936ZM91.2719 7.0936H92.2719V6.0936H91.2719V7.0936ZM98.3655 15.7635V16.7635H99.3655V15.7635H98.3655ZM4.65752 4.33497H3.65752V4.43483L3.67727 4.53272L4.65752 4.33497ZM6.96294 15.7635L5.98269 15.9613L6.14452 16.7635H6.96294V15.7635ZM4.65752 0.394088V-0.605912H3.65752V0.394088H4.65752ZM7.88905 0.394088L8.8693 0.196347L8.70747 -0.605912H7.88905V0.394088ZM10.1945 11.8227L9.21421 12.0204L9.37605 12.8227H10.1945V11.8227ZM10.3521 11.8227V12.8227H11.1691L11.332 12.022L10.3521 11.8227ZM12.6772 0.394088V-0.605912H11.8602L11.6973 0.194724L12.6772 0.394088ZM19.9482 0.394088H20.9482V-0.605912H19.9482V0.394088ZM19.9482 15.7635V16.7635H20.9482V15.7635H19.9482ZM15.8102 15.7635H14.8102V16.7635H15.8102V15.7635ZM15.8102 4.33497H16.8102V3.33497H15.8102V4.33497ZM15.692 4.33497V3.33497H14.875L14.7121 4.13561L15.692 4.33497ZM13.3669 15.7635V16.7635H14.1839L14.3468 15.9629L13.3669 15.7635ZM1.37798 0.392189H2.37798V-0.607811H1.37798V0.392189ZM0 0.392189V-0.607811H-1V0.392189H0ZM1.37798 1.03291H0.377985V2.03291H1.37798V1.03291ZM2.75586 1.03291V2.03291H3.75586V1.03291H2.75586ZM2.75586 0.392284V-0.607716H1.75586V0.392284H2.75586ZM4.13384 0.392284H5.13384V-0.607716H4.13384V0.392284ZM4.13384 1.03291H3.13384V2.03291H4.13384V1.03291ZM4.13395 1.03291H5.13395V0.0329094H4.13395V1.03291ZM4.13395 2.31381V3.31381H5.13395V2.31381H4.13395ZM4.13384 2.31381V1.31381H3.13384V2.31381H4.13384ZM4.13384 3.59502H3.13384V4.59502H4.13384V3.59502ZM4.13395 3.59502H5.13395V2.59502H4.13395V3.59502ZM4.13395 4.87592V5.87592H5.13395V4.87592H4.13395ZM4.13384 4.87592V3.87592H3.13384V4.87592H4.13384ZM4.13384 6.1583H3.13384V7.1583H4.13384V6.1583ZM4.13395 6.1583H5.13395V5.1583H4.13395V6.1583ZM4.13395 7.43921V8.43921H5.13395V7.43921H4.13395ZM4.13384 7.43921V6.43921H3.13384V7.43921H4.13384ZM4.13384 8.71963H3.13384V9.71963H4.13384V8.71963ZM4.13395 8.71963H5.13395V7.71963H4.13395V8.71963ZM4.13395 10.0005V11.0005H5.13395V10.0005H4.13395ZM4.13384 10.0005V9.00053H3.13384V10.0005H4.13384ZM4.13384 11.2821H3.13384V12.2821H4.13384V11.2821ZM4.13395 11.2821H5.13395V10.2821H4.13395V11.2821ZM4.13395 12.563V13.563H5.13395V12.563H4.13395ZM4.13384 12.563V11.563H3.13384V12.563H4.13384ZM4.13384 13.8446H3.13384V14.8446H4.13384V13.8446ZM4.13395 13.8446H5.13395V12.8446H4.13395V13.8446ZM4.13395 15.1255V16.1255H5.13395V15.1255H4.13395ZM4.13384 15.1255V14.1255H3.13384V15.1255H4.13384ZM4.13384 15.7663V16.7663H5.13384V15.7663H4.13384ZM2.75586 15.7663H1.75586V16.7663H2.75586V15.7663ZM2.75586 15.1255H3.75586V14.1255H2.75586V15.1255ZM1.37798 15.1255V14.1255H0.377985V15.1255H1.37798ZM1.37798 15.7662V16.7662H2.37798V15.7662H1.37798ZM0 15.7662H-1V16.7662H0V15.7662ZM1.37798 2.31381V1.31381H0.377985V2.31381H1.37798ZM1.37798 3.59502H0.377985V4.59502H1.37798V3.59502ZM2.75586 2.31381H3.75586V1.31381H2.75586V2.31381ZM2.75586 3.59502V4.59502H3.75586V3.59502H2.75586ZM1.37798 6.1583H0.377985V7.1583H1.37798V6.1583ZM1.37798 4.87592V3.87592H0.377985V4.87592H1.37798ZM2.75586 6.1583V7.1583H3.75586V6.1583H2.75586ZM2.75586 4.87592H3.75586V3.87592H2.75586V4.87592ZM1.37798 7.43921V6.43921H0.377985V7.43921H1.37798ZM1.37798 8.71963H0.377985V9.71963H1.37798V8.71963ZM2.75586 7.43921H3.75586V6.43921H2.75586V7.43921ZM2.75586 8.71963V9.71963H3.75586V8.71963H2.75586ZM1.37798 11.2821H0.377985V12.2821H1.37798V11.2821ZM1.37798 10.0005V9.00053H0.377985V10.0005H1.37798ZM2.75586 11.2821V12.2821H3.75586V11.2821H2.75586ZM2.75586 10.0005H3.75586V9.00053H2.75586V10.0005ZM1.37798 12.563V11.563H0.377985V12.563H1.37798ZM1.37798 13.8446H0.377985V14.8446H1.37798V13.8446ZM2.75586 12.563H3.75586V11.563H2.75586V12.563ZM2.75586 13.8446V14.8446H3.75586V13.8446H2.75586ZM47.251 16.7635H50.9948V14.7635H47.251V16.7635ZM46.251 3.94089V15.7635H48.251V3.94089H46.251ZM50.9948 2.94089H47.251V4.94089H50.9948V2.94089ZM51.9948 15.7635V3.94089H49.9948V15.7635H51.9948ZM47.1524 3.75862H51.0933V1.75862H47.1524V3.75862ZM46.1524 0V2.75862H48.1524V0H46.1524ZM51.0933 -1H47.1524V1H51.0933V-1ZM52.0933 2.75862V0H50.0933V2.75862H52.0933ZM30.5599 9.85222C30.5599 9.13328 30.5471 8.52045 30.4872 8.02077C30.4287 7.53199 30.3128 7.02501 30.0162 6.60264C29.6879 6.13512 29.232 5.89836 28.7576 5.78275C28.3239 5.67705 27.8225 5.6601 27.3136 5.6601V7.6601C27.8195 7.6601 28.1063 7.68256 28.284 7.72587C28.3619 7.74485 28.3892 7.76139 28.3908 7.76239C28.3913 7.76272 28.3884 7.76088 28.3842 7.75694C28.3801 7.75301 28.3785 7.75058 28.3795 7.75204C28.3908 7.7681 28.456 7.87934 28.5014 8.25878C28.5456 8.62733 28.5599 9.13273 28.5599 9.85222H30.5599ZM27.3136 14.0443C27.8225 14.0443 28.3239 14.0274 28.7576 13.9217C29.232 13.8061 29.6879 13.5693 30.0162 13.1018C30.3128 12.6794 30.4287 12.1724 30.4872 11.6837C30.5471 11.184 30.5599 10.5712 30.5599 9.85222H28.5599C28.5599 10.5717 28.5456 11.0771 28.5014 11.4456C28.456 11.8251 28.3908 11.9363 28.3795 11.9524C28.3785 11.9539 28.3801 11.9514 28.3842 11.9475C28.3884 11.9436 28.3913 11.9417 28.3908 11.942C28.3892 11.943 28.3619 11.9596 28.284 11.9786C28.1063 12.0219 27.8195 12.0443 27.3136 12.0443V14.0443ZM24.0673 9.85222C24.0673 10.5712 24.0801 11.184 24.14 11.6837C24.1986 12.1724 24.3144 12.6794 24.611 13.1018C24.9393 13.5693 25.3952 13.8061 25.8696 13.9217C26.3034 14.0274 26.8047 14.0443 27.3136 14.0443V12.0443C26.8077 12.0443 26.5209 12.0219 26.3432 11.9786C26.2653 11.9596 26.238 11.943 26.2364 11.942C26.2359 11.9417 26.2388 11.9436 26.243 11.9475C26.2472 11.9514 26.2488 11.9539 26.2477 11.9524C26.2365 11.9363 26.1713 11.8251 26.1258 11.4456C26.0816 11.0771 26.0673 10.5717 26.0673 9.85222H24.0673ZM27.3136 5.6601C26.8047 5.6601 26.3034 5.67705 25.8696 5.78275C25.3952 5.89836 24.9393 6.13512 24.611 6.60264C24.3144 7.02501 24.1986 7.53199 24.14 8.02077C24.0801 8.52045 24.0673 9.13328 24.0673 9.85222H26.0673C26.0673 9.13273 26.0816 8.62733 26.1258 8.25878C26.1713 7.87934 26.2365 7.7681 26.2477 7.75204C26.2488 7.75058 26.2472 7.75301 26.243 7.75694C26.2388 7.76088 26.2359 7.76272 26.2364 7.76239C26.238 7.76139 26.2653 7.74485 26.3432 7.72587C26.5209 7.68256 26.8077 7.6601 27.3136 7.6601V5.6601ZM27.3136 15C24.8319 15 23.6801 14.6691 23.0696 14.0635C22.4618 13.4605 22.1264 12.3216 22.1264 9.85222H20.1264C20.1264 12.3089 20.4118 14.244 21.6611 15.4833C22.9077 16.72 24.8495 17 27.3136 17V15ZM32.5008 9.85222C32.5008 12.3216 32.1655 13.4605 31.5576 14.0635C30.9471 14.6691 29.7953 15 27.3136 15V17C29.7778 17 31.7195 16.72 32.9662 15.4833C34.2155 14.244 34.5008 12.3089 34.5008 9.85222H32.5008ZM27.3136 4.70443C29.7953 4.70443 30.9471 5.03532 31.5576 5.64096C32.1655 6.24397 32.5008 7.38284 32.5008 9.85222H34.5008C34.5008 7.39549 34.2155 5.46047 32.9662 4.22111C31.7195 2.98438 29.7778 2.70443 27.3136 2.70443V4.70443ZM22.1264 9.85222C22.1264 7.38284 22.4618 6.24397 23.0696 5.64096C23.6801 5.03532 24.8319 4.70443 27.3136 4.70443V2.70443C24.8495 2.70443 22.9077 2.98438 21.6611 4.22111C20.4118 5.46047 20.1264 7.39549 20.1264 9.85222H22.1264ZM42.7319 4.94089H46.456V2.94089H42.7319V4.94089ZM41.1124 13.2788L43.6936 4.21478L41.7701 3.66699L39.1888 12.731L41.1124 13.2788ZM40.0324 14.0049H40.1506V12.0049H40.0324V14.0049ZM36.7194 4.19134L39.0642 13.2554L41.0005 12.7545L38.6557 3.69043L36.7194 4.19134ZM33.8058 4.94089H37.6875V2.94089H33.8058V4.94089ZM38.0405 15.4969L34.7696 3.67424L32.842 4.20754L36.1129 16.0302L38.0405 15.4969ZM42.8501 14.7635H37.0767V16.7635H42.8501V14.7635ZM45.4995 3.64915L41.8936 15.4718L43.8066 16.0553L47.4125 4.23262L45.4995 3.64915ZM60.252 13H64.1929V11H60.252V13ZM58.3013 14.2414C58.7102 14.2414 59.0853 14.2251 59.4151 14.1743C59.7408 14.1241 60.0886 14.031 60.3987 13.8329C61.1361 13.362 61.252 12.5931 61.252 12H59.252C59.252 12.0916 59.2474 12.1563 59.2412 12.2011C59.2352 12.2455 59.229 12.2607 59.2304 12.2569C59.2417 12.2269 59.2785 12.1752 59.3222 12.1474C59.3392 12.1365 59.2965 12.169 59.1106 12.1976C58.9287 12.2256 58.6707 12.2414 58.3013 12.2414V14.2414ZM55.2331 10.9543C55.2534 11.4887 55.2941 11.9667 55.3864 12.3736C55.4795 12.7842 55.6423 13.202 55.9642 13.5421C56.2968 13.8935 56.7044 14.0627 57.0984 14.1469C57.4719 14.2268 57.8881 14.2414 58.3013 14.2414V12.2414C57.9067 12.2414 57.6701 12.224 57.5165 12.1911C57.3834 12.1627 57.3895 12.1385 57.4167 12.1672C57.4332 12.1847 57.3866 12.1505 57.3369 11.9312C57.2863 11.7082 57.2507 11.3783 57.2316 10.8782L55.2331 10.9543ZM64.2915 9.91626H56.2323V11.9163H64.2915V9.91626ZM63.2915 9.08374V10.9163H65.2915V9.08374H63.2915ZM58.2816 4.70443C60.6256 4.70443 61.7397 4.99878 62.3354 5.52976C62.8991 6.03211 63.2429 6.97641 63.2917 9.10668L65.2912 9.06081C65.2415 6.89551 64.9154 5.15016 63.6662 4.03674C62.4491 2.95196 60.6076 2.70443 58.2816 2.70443V4.70443ZM53.2717 9.85222C53.2717 7.37868 53.598 6.23382 54.1884 5.63046C54.7714 5.03477 55.8724 4.70443 58.2816 4.70443V2.70443C55.8829 2.70443 53.979 2.98494 52.759 4.23161C51.5465 5.47062 51.2717 7.39965 51.2717 9.85222H53.2717ZM58.2816 15C55.8724 15 54.7714 14.6697 54.1884 14.074C53.598 13.4706 53.2717 12.3258 53.2717 9.85222H51.2717C51.2717 12.3048 51.5465 14.2338 52.759 15.4728C53.979 16.7195 55.8829 17 58.2816 17V15ZM63.1932 11.9753C63.1557 13.4952 62.8561 14.0537 62.3905 14.3693C62.1125 14.5577 61.6834 14.724 60.9942 14.8371C60.3068 14.9498 59.4234 15 58.2816 15V17C59.4649 17 60.4732 16.9492 61.3178 16.8107C62.1606 16.6725 62.9039 16.4374 63.5126 16.0248C64.8204 15.1384 65.1513 13.6969 65.1926 12.0247L63.1932 11.9753ZM58.3013 5.46305C57.926 5.46305 57.5555 5.47475 57.22 5.53101C56.8783 5.58831 56.5086 5.70161 56.1786 5.95104C55.4945 6.46817 55.327 7.29787 55.2563 8.06592L57.2478 8.24935C57.315 7.51986 57.4431 7.50227 57.3846 7.5465C57.3675 7.55947 57.393 7.52992 57.5507 7.50347C57.7146 7.47599 57.9475 7.46305 58.3013 7.46305V5.46305ZM61.3502 8.13167C61.3401 7.74089 61.3144 7.351 61.2267 7.00627C61.1332 6.63843 60.9524 6.25538 60.5885 5.96245C60.245 5.68589 59.8451 5.57765 59.4951 5.52542C59.145 5.47319 58.7377 5.46305 58.3013 5.46305V7.46305C58.7319 7.46305 59.0094 7.47509 59.1999 7.50352C59.3905 7.53196 59.3872 7.56288 59.3343 7.52031C59.2611 7.46136 59.265 7.40713 59.2884 7.49927C59.3178 7.61452 59.3413 7.81576 59.3509 8.1836L61.3502 8.13167ZM56.252 9.15764H60.3506V7.15764H56.252V9.15764ZM70.7727 11.4138C70.4229 11.4138 70.2002 11.407 70.0492 11.3903C69.9773 11.3823 69.9437 11.3743 69.9349 11.3718C69.9271 11.3697 69.9603 11.3777 70.011 11.4104C70.0671 11.4465 70.1235 11.4991 70.1681 11.565C70.2098 11.6268 70.2248 11.6761 70.2284 11.6894C70.2312 11.6998 70.2266 11.6866 70.2224 11.6338C70.2183 11.5818 70.216 11.5105 70.216 11.4089H68.216C68.216 11.6385 68.2227 11.9316 68.2966 12.2072C68.3837 12.5321 68.5713 12.8622 68.9285 13.0921C69.2327 13.2879 69.5702 13.3495 69.8293 13.3782C70.1013 13.4083 70.4229 13.4138 70.7727 13.4138V11.4138ZM71.7727 15.7635V12.4138H69.7727V15.7635H71.7727ZM68.6249 16.7635H70.7727V14.7635H68.6249V16.7635ZM64.4722 12.5244C64.4624 13.8047 64.5862 15.0077 65.3718 15.8137C66.1635 16.6261 67.3595 16.7635 68.6249 16.7635V14.7635C67.3484 14.7635 66.9582 14.5759 66.8041 14.4178C66.6438 14.2534 66.4622 13.8406 66.4721 12.5397L64.4722 12.5244ZM64.4722 0V12.532H66.4722V0H64.4722ZM69.216 -1H65.4722V1H69.216V-1ZM70.216 11.4089V0H68.216V11.4089H70.216ZM75.7901 14.7635H72.0462V16.7635H75.7901V14.7635ZM74.7901 3.94089V15.7635H76.7901V3.94089H74.7901ZM72.0462 4.94089H75.7901V2.94089H72.0462V4.94089ZM73.0462 15.7635V3.94089H71.0462V15.7635H73.0462ZM75.8886 1.75862H71.9477V3.75862H75.8886V1.75862ZM74.8886 0V2.75862H76.8886V0H74.8886ZM71.9477 1H75.8886V-1H71.9477V1ZM72.9477 2.75862V0H70.9477V2.75862H72.9477ZM81.8109 12.0591V11.803H79.8109V12.0591H81.8109ZM83.0374 12.2414C82.5351 12.2414 82.1855 12.2336 81.9327 12.2104C81.6638 12.1858 81.6118 12.1514 81.6403 12.1665C81.6678 12.1812 81.7152 12.2134 81.7603 12.2687C81.8044 12.3227 81.8227 12.3699 81.828 12.3864C81.8288 12.3887 81.8109 12.3216 81.8109 12.0591H79.8109C79.8109 12.3286 79.82 12.6754 79.9242 12.9991C80.0501 13.3902 80.303 13.7204 80.7006 13.932C81.0345 14.1097 81.4135 14.1713 81.7505 14.2021C82.1036 14.2344 82.5349 14.2414 83.0374 14.2414V12.2414ZM84.1655 12.335C84.1655 12.5262 84.1464 12.5117 84.1761 12.4392C84.1978 12.386 84.2368 12.3206 84.2974 12.2614C84.3554 12.2048 84.407 12.1794 84.4243 12.172C84.4351 12.1674 84.3648 12.1963 84.1009 12.2162C83.853 12.235 83.5143 12.2414 83.0374 12.2414V14.2414C83.5162 14.2414 83.9214 14.2355 84.2517 14.2105C84.566 14.1867 84.9083 14.1405 85.2122 14.0103C85.5726 13.8558 85.8672 13.588 86.0275 13.1956C86.1575 12.8774 86.1655 12.5477 86.1655 12.335H84.1655ZM82.1863 12.0573C83.3282 12.2677 83.9068 12.4177 84.1963 12.5488C84.3284 12.6087 84.3026 12.6232 84.2497 12.5539C84.1768 12.4585 84.1655 12.3586 84.1655 12.335H86.1655C86.1655 12.0158 86.0853 11.6622 85.8388 11.3395C85.6122 11.043 85.3081 10.8568 85.0215 10.727C84.4735 10.4788 83.6531 10.2939 82.5487 10.0904L82.1863 12.0573ZM76.3429 7.27094C76.3429 7.90263 76.4114 8.51257 76.6315 9.07476C76.8595 9.65721 77.2289 10.1349 77.7453 10.5247C78.7072 11.2509 80.1854 11.6651 82.1751 12.0552L82.5599 10.0926C80.5299 9.69454 79.4958 9.34027 78.9503 8.92848C78.713 8.74933 78.58 8.56569 78.4939 8.3458C78.3999 8.10565 78.3429 7.77224 78.3429 7.27094H76.3429ZM83.136 2.70443C81.9604 2.70443 80.9635 2.74894 80.1326 2.87043C79.3066 2.99121 78.5769 3.19699 77.9793 3.56435C76.6547 4.37861 76.3429 5.73548 76.3429 7.27094H78.3429C78.3429 5.94925 78.6123 5.52286 79.0267 5.26816C79.2985 5.10103 79.7277 4.95091 80.422 4.84939C81.1114 4.74859 81.9963 4.70443 83.136 4.70443V2.70443ZM89.8109 7.70443C89.8109 6.04269 89.525 4.58986 88.2492 3.69016C87.6545 3.27078 86.9245 3.03344 86.101 2.89448C85.2756 2.75521 84.2902 2.70443 83.136 2.70443V4.70443C84.2478 4.70443 85.1047 4.75464 85.7682 4.8666C86.4336 4.97887 86.8391 5.14301 87.0966 5.32462C87.5252 5.62689 87.8109 6.17406 87.8109 7.70443H89.8109ZM89.8109 8.05911V7.70443H87.8109V8.05911H89.8109ZM85.067 9.05911H88.8109V7.05911H85.067V9.05911ZM84.067 7.70443V8.05911H86.067V7.70443H84.067ZM83.136 7.46305C83.5699 7.46305 83.8583 7.47107 84.0607 7.49317C84.2763 7.5167 84.2773 7.54609 84.2133 7.50526C84.17 7.47759 84.1234 7.43494 84.0864 7.3806C84.0523 7.33037 84.0429 7.29449 84.0436 7.29692C84.0515 7.32639 84.067 7.42683 84.067 7.70443H86.067C86.067 7.42046 86.0578 7.08494 85.9747 6.77635C85.878 6.4178 85.6738 6.06496 85.2901 5.81987C84.9602 5.60908 84.5868 5.53871 84.2777 5.50498C83.9555 5.46981 83.5691 5.46305 83.136 5.46305V7.46305ZM82.2838 7.38916C82.2838 7.1863 82.2996 7.17253 82.2842 7.2178C82.271 7.25655 82.242 7.32004 82.1854 7.38558C82.1287 7.45136 82.0698 7.4896 82.0325 7.50845C81.9841 7.53287 82.007 7.50692 82.2275 7.48754C82.4318 7.46958 82.718 7.46305 83.136 7.46305V5.46305C82.7165 5.46305 82.3525 5.46884 82.0524 5.49522C81.7686 5.52017 81.4332 5.57058 81.1311 5.72308C80.7655 5.90766 80.5163 6.20524 80.3911 6.57284C80.29 6.86935 80.2838 7.17823 80.2838 7.38916H82.2838ZM83.069 7.32656C82.7547 7.27894 82.5251 7.23628 82.3549 7.19423C82.179 7.15075 82.1133 7.11883 82.1024 7.11272C82.1013 7.11211 82.1218 7.12337 82.1509 7.15136C82.1818 7.18103 82.2136 7.221 82.2394 7.26949C82.2911 7.36678 82.2838 7.43143 82.2838 7.38916H80.2838C80.2838 7.62275 80.3183 7.91647 80.4734 8.20834C80.6345 8.51135 80.8745 8.71736 81.1252 8.85773C81.5554 9.09864 82.1467 9.20964 82.7694 9.30399L83.069 7.32656ZM90.1064 12.6108C90.1064 11.8855 90.0221 11.193 89.7576 10.5614C89.4845 9.90935 89.0456 9.38421 88.4382 8.96208C87.2987 8.17017 85.5323 7.72885 83.0804 7.32835L82.758 9.30219C85.252 9.70957 86.5792 10.1057 87.2968 10.6044C87.618 10.8276 87.7985 11.0611 87.9128 11.3339C88.0356 11.6272 88.1064 12.0258 88.1064 12.6108H90.1064ZM83.136 17C84.3444 17 85.3652 16.958 86.2138 16.8439C87.0562 16.7307 87.7959 16.5384 88.4019 16.1954C89.0378 15.8356 89.4908 15.3295 89.7659 14.6752C90.0273 14.0536 90.1064 13.3495 90.1064 12.6108H88.1064C88.1064 13.2318 88.0353 13.6312 87.9223 13.9C87.823 14.136 87.6775 14.3073 87.4168 14.4548C87.1263 14.6193 86.6714 14.7644 85.9473 14.8617C85.2294 14.9583 84.3118 15 83.136 15V17ZM76.067 12.0591C76.067 13.7254 76.3844 15.1718 77.7396 16.0508C78.3607 16.4537 79.1229 16.6817 79.9899 16.8158C80.8607 16.9505 81.905 17 83.136 17V15C81.9433 15 81.0172 14.951 80.2956 14.8393C79.5702 14.7271 79.1181 14.5611 78.8279 14.3729C78.3604 14.0696 78.067 13.5456 78.067 12.0591H76.067ZM76.067 11.803V12.0591H78.067V11.803H76.067ZM80.8109 10.803H77.067V12.803H80.8109V10.803ZM96.3754 13.4138H98.3655V11.4138H96.3754V13.4138ZM94.0157 10.8177C94.0157 11.1781 94.0233 11.523 94.0671 11.8199C94.1105 12.1143 94.2056 12.4867 94.477 12.8046C94.7661 13.1432 95.1362 13.2837 95.4498 13.347C95.7421 13.4059 96.0689 13.4138 96.3754 13.4138V11.4138C96.0709 11.4138 95.9224 11.402 95.8452 11.3864C95.7894 11.3752 95.8959 11.3864 95.9979 11.5058C96.0821 11.6044 96.0663 11.6677 96.0457 11.528C96.0254 11.3907 96.0157 11.1766 96.0157 10.8177H94.0157ZM94.0157 7.0936V10.8177H96.0157V7.0936H94.0157ZM98.1685 6.0936H95.0157V8.0936H98.1685V6.0936ZM97.1685 3.94089V7.0936H99.1685V3.94089H97.1685ZM95.0157 4.94089H98.1685V2.94089H95.0157V4.94089ZM94.0157 1.41872V3.94089H96.0157V1.41872H94.0157ZM91.4689 2.41872H95.0157V0.418719H91.4689V2.41872ZM92.4689 3.94089V1.41872H90.4689V3.94089H92.4689ZM90.0896 4.94089H91.4689V2.94089H90.0896V4.94089ZM91.0896 7.0936V3.94089H89.0896V7.0936H91.0896ZM91.2719 6.0936H90.0896V8.0936H91.2719V6.0936ZM92.2719 11.7833V7.0936H90.2719V11.7833H92.2719ZM96.001 14.7635C94.0837 14.7635 93.2597 14.5399 92.861 14.2048C92.5267 13.9239 92.2719 13.3596 92.2719 11.7833H90.2719C90.2719 13.399 90.49 14.8249 91.5744 15.736C92.5944 16.5932 94.135 16.7635 96.001 16.7635V14.7635ZM98.3655 14.7635H96.001V16.7635H98.3655V14.7635ZM97.3655 12.4138V15.7635H99.3655V12.4138H97.3655ZM3.67727 4.53272L5.98269 15.9613L7.94319 15.5658L5.63777 4.13723L3.67727 4.53272ZM3.65752 0.394088V4.33497H5.65752V0.394088H3.65752ZM7.88905 -0.605912H4.65752V1.39409H7.88905V-0.605912ZM11.1747 11.6249L8.8693 0.196347L6.90879 0.591829L9.21421 12.0204L11.1747 11.6249ZM10.3521 10.8227H10.1945V12.8227H10.3521V10.8227ZM11.6973 0.194724L9.37218 11.6233L11.332 12.022L13.6572 0.593452L11.6973 0.194724ZM19.9482 -0.605912H12.6772V1.39409H19.9482V-0.605912ZM20.9482 15.7635V0.394088H18.9482V15.7635H20.9482ZM15.8102 16.7635H19.9482V14.7635H15.8102V16.7635ZM14.8102 4.33497V15.7635H16.8102V4.33497H14.8102ZM15.692 5.33497H15.8102V3.33497H15.692V5.33497ZM14.3468 15.9629L16.6719 4.53434L14.7121 4.13561L12.387 15.5642L14.3468 15.9629ZM6.96294 16.7635H13.3669V14.7635H6.96294V16.7635ZM1.37798 -0.607811H0V1.39219H1.37798V-0.607811ZM2.37798 1.03291V0.392189H0.377985V1.03291H2.37798ZM2.75586 0.0329094H1.37798V2.03291H2.75586V0.0329094ZM1.75586 0.392284V1.03291H3.75586V0.392284H1.75586ZM4.13384 -0.607716H2.75586V1.39228H4.13384V-0.607716ZM5.13384 1.03291V0.392284H3.13384V1.03291H5.13384ZM4.13395 0.0329094H4.13384V2.03291H4.13395V0.0329094ZM5.13395 2.31381V1.03291H3.13395V2.31381H5.13395ZM4.13384 3.31381H4.13395V1.31381H4.13384V3.31381ZM5.13384 3.59502V2.31381H3.13384V3.59502H5.13384ZM4.13395 2.59502H4.13384V4.59502H4.13395V2.59502ZM5.13395 4.87592V3.59502H3.13395V4.87592H5.13395ZM4.13384 5.87592H4.13395V3.87592H4.13384V5.87592ZM5.13384 6.1583V4.87592H3.13384V6.1583H5.13384ZM4.13395 5.1583H4.13384V7.1583H4.13395V5.1583ZM5.13395 7.43921V6.1583H3.13395V7.43921H5.13395ZM4.13384 8.43921H4.13395V6.43921H4.13384V8.43921ZM5.13384 8.71963V7.43921H3.13384V8.71963H5.13384ZM4.13395 7.71963H4.13384V9.71963H4.13395V7.71963ZM5.13395 10.0005V8.71963H3.13395V10.0005H5.13395ZM4.13384 11.0005H4.13395V9.00053H4.13384V11.0005ZM5.13384 11.2821V10.0005H3.13384V11.2821H5.13384ZM4.13395 10.2821H4.13384V12.2821H4.13395V10.2821ZM5.13395 12.563V11.2821H3.13395V12.563H5.13395ZM4.13384 13.563H4.13395V11.563H4.13384V13.563ZM5.13384 13.8446V12.563H3.13384V13.8446H5.13384ZM4.13395 12.8446H4.13384V14.8446H4.13395V12.8446ZM5.13395 15.1255V13.8446H3.13395V15.1255H5.13395ZM4.13384 16.1255H4.13395V14.1255H4.13384V16.1255ZM5.13384 15.7663V15.1255H3.13384V15.7663H5.13384ZM2.75586 16.7663H4.13384V14.7663H2.75586V16.7663ZM1.75586 15.1255V15.7663H3.75586V15.1255H1.75586ZM1.37798 16.1255H2.75586V14.1255H1.37798V16.1255ZM2.37798 15.7662V15.1255H0.377985V15.7662H2.37798ZM0 16.7662H1.37798V14.7662H0V16.7662ZM-1 15.1255V15.7662H1V15.1255H-1ZM-1 13.8446V15.1255H1V13.8446H-1ZM-1 12.563V13.8446H1V12.563H-1ZM-1 11.2821V12.563H1V11.2821H-1ZM-1 10.0005V11.2821H1V10.0005H-1ZM-1 8.71963V10.0005H1V8.71963H-1ZM-1 7.43921V8.71963H1V7.43921H-1ZM-1 6.1583V7.43921H1V6.1583H-1ZM-1 4.87592V6.1583H1V4.87592H-1ZM-1 3.59502V4.87592H1V3.59502H-1ZM-1 2.31381V3.59502H1V2.31381H-1ZM-1 1.03291V2.31381H1V1.03291H-1ZM-1 0.392189V1.03291H1V0.392189H-1ZM0.377985 2.31381V3.59502H2.37798V2.31381H0.377985ZM2.75586 1.31381H1.37798V3.31381H2.75586V1.31381ZM3.75586 3.59502V2.31381H1.75586V3.59502H3.75586ZM1.37798 4.59502H2.75586V2.59502H1.37798V4.59502ZM2.37798 6.1583V4.87592H0.377985V6.1583H2.37798ZM2.75586 5.1583H1.37798V7.1583H2.75586V5.1583ZM1.75586 4.87592V6.1583H3.75586V4.87592H1.75586ZM1.37798 5.87592H2.75586V3.87592H1.37798V5.87592ZM0.377985 7.43921V8.71963H2.37798V7.43921H0.377985ZM2.75586 6.43921H1.37798V8.43921H2.75586V6.43921ZM3.75586 8.71963V7.43921H1.75586V8.71963H3.75586ZM1.37798 9.71963H2.75586V7.71963H1.37798V9.71963ZM2.37798 11.2821V10.0005H0.377985V11.2821H2.37798ZM2.75586 10.2821H1.37798V12.2821H2.75586V10.2821ZM1.75586 10.0005V11.2821H3.75586V10.0005H1.75586ZM1.37798 11.0005H2.75586V9.00053H1.37798V11.0005ZM0.377985 12.563V13.8446H2.37798V12.563H0.377985ZM2.75586 11.563H1.37798V13.563H2.75586V11.563ZM3.75586 13.8446V12.563H1.75586V13.8446H3.75586ZM1.37798 14.8446H2.75586V12.8446H1.37798V14.8446Z" fill="black" mask="url(#path-1-inside-1_1_174)"/>
</g>
<defs>
<filter id="filter0_d_1_174" x="-4" y="0" width="106.365" height="24" filterUnits="userSpaceOnUse" color-interpolation-filters="sRGB">
<feFlood flood-opacity="0" result="BackgroundImageFix"/>
<feColorMatrix in="SourceAlpha" type="matrix" values="0 0 0 0 0 0 0 0 0 0 0 0 0 0 0 0 0 0 127 0" result="hardAlpha"/>
<feOffset dy="4"/>
<feGaussianBlur stdDeviation="2"/>
<feComposite in2="hardAlpha" operator="out"/>
<feColorMatrix type="matrix" values="0 0 0 0 0 0 0 0 0 0 0 0 0 0 0 0 0 0 0.25 0"/>
<feBlend mode="normal" in2="BackgroundImageFix" result="effect1_dropShadow_1_174"/>
<feBlend mode="normal" in="SourceGraphic" in2="effect1_dropShadow_1_174" result="shape"/>
</filter>
</defs>
</svg>
